<svg width="31" height="44" viewBox="0 0 31 44" fill="none" xmlns="http://www.w3.org/2000/svg">
<foreignObject x="0" y="4.81641" width="30.5" height="34.1836"><div xmlns="http://www.w3.org/1999/xhtml" style="backdrop-filter:blur(2px);clip-path:url(#bgblur_0_1238_104_clip_path);height:100%;width:100%"></div></foreignObject><g filter="url(#filter0_di_1238_104)" data-figma-bg-blur-radius="4">
<path d="M7.3244 35H4.00053L13.6142 8.81818H16.8869L26.5005 35H23.1767L15.3528 12.9602H15.1483L7.3244 35ZM8.55167 24.7727H21.9494V27.5852H8.55167V24.7727Z" fill="white"/>
</g>
<g filter="url(#filter1_g_1238_104)">
<path d="M7.3244 35H4.00053L13.6142 8.81818H16.8869L26.5005 35H23.1767L15.3528 12.9602H15.1483L7.3244 35ZM8.55167 24.7727H21.9494V27.5852H8.55167V24.7727Z" fill="white" fill-opacity="0.1"/>
</g>
<defs>
<filter id="filter0_di_1238_104" x="0" y="4.81641" width="30.5" height="34.1836" filterUnits="userSpaceOnUse" color-interpolation-filters="sRGB">
<feFlood flood-opacity="0" result="BackgroundImageFix"/>
<feColorMatrix in="SourceAlpha" type="matrix" values="0 0 0 0 0 0 0 0 0 0 0 0 0 0 0 0 0 0 127 0" result="hardAlpha"/>
<feOffset dy="1"/>
<feGaussianBlur stdDeviation="1.4"/>
<feComposite in2="hardAlpha" operator="out"/>
<feColorMatrix type="matrix" values="0 0 0 0 0.346748 0 0 0 0 0.276835 0 0 0 0 0.975962 0 0 0 0.51 0"/>
<feBlend mode="normal" in2="BackgroundImageFix" result="effect1_dropShadow_1238_104"/>
<feBlend mode="normal" in="SourceGraphic" in2="effect1_dropShadow_1238_104" result="shape"/>
<feColorMatrix in="SourceAlpha" type="matrix" values="0 0 0 0 0 0 0 0 0 0 0 0 0 0 0 0 0 0 127 0" result="hardAlpha"/>
<feOffset dy="4"/>
<feGaussianBlur stdDeviation="2"/>
<feComposite in2="hardAlpha" operator="arithmetic" k2="-1" k3="1"/>
<feColorMatrix type="matrix" values="0 0 0 0 0.31081 0 0 0 0 0.195128 0 0 0 0 0.966346 0 0 0 1 0"/>
<feBlend mode="normal" in2="shape" result="effect2_innerShadow_1238_104"/>
</filter>
<clipPath id="bgblur_0_1238_104_clip_path" transform="translate(0 -4.81641)"><path d="M7.3244 35H4.00053L13.6142 8.81818H16.8869L26.5005 35H23.1767L15.3528 12.9602H15.1483L7.3244 35ZM8.55167 24.7727H21.9494V27.5852H8.55167V24.7727Z"/>
</clipPath><filter id="filter1_g_1238_104" x="0" y="4.81641" width="30.5" height="34.1836" filterUnits="userSpaceOnUse" color-interpolation-filters="sRGB">
<feFlood flood-opacity="0" result="BackgroundImageFix"/>
<feBlend mode="normal" in="SourceGraphic" in2="BackgroundImageFix" result="shape"/>
<feTurbulence type="fractalNoise" baseFrequency="0.99900001287460327 0.99900001287460327" numOctaves="3" seed="3891" />
<feDisplacementMap in="shape" scale="8" xChannelSelector="R" yChannelSelector="G" result="displacedImage" width="100%" height="100%" />
<feMerge result="effect1_texture_1238_104">
<feMergeNode in="displacedImage"/>
</feMerge>
</filter>
</defs>
</svg>
